/* XPM */
static char * haskell_xpm[] = {
"20 20 3 1",
" 	c None",
",	c #99508b",
".	c #8265E6",
"                    ",
"                    ",
"                    ",
",,,, ....           ",
" ,,,, ...           ",
"  ,,, ....          ",
"  ,,,, ....         ",
"   ,,,, ... ........",
"    ,,, .... .......",
"    ,,,, ....       ",
"    ,,,, ....       ",
"    ,,, ...... .....",
"   ,,,, ....... ....",
"  ,,,, .... ...     ",
"  ,,, ....  ....    ",
" ,,,, ...    ....   ",
",,,, ....     ...   ",
"                    ",
"                    ",
"                    "};
